<?xml version="1.0" encoding="utf-8"?>
<!-- Generator: Adobe Illustrator 21.1.0, SVG Export Plug-In . SVG Version: 6.00 Build 0)  -->
<svg version="1.1" id="Layer_1" xmlns="http://www.w3.org/2000/svg" xmlns:xlink="http://www.w3.org/1999/xlink" x="0px" y="0px"
	 viewBox="0 0 200 100" style="enable-background:new 0 0 200 100;" xml:space="preserve">
<style type="text/css">
	.st0{fill:#FFFFFF;}
	.st1{fill:#80C242;}
</style>
<title>HF_Logo</title>
<path class="st0" d="M140.8,62.4h4.9V44.1h-4.9V62.4z M140.8,38.7h5V35h-5V38.7z"/>
<path class="st0" d="M159.7,49.7c0,3.4,2.2,4.8,5.7,5.1l3.1,0.3c1.5,0.1,2.1,0.8,2.1,1.7c0,1.4-1.8,1.9-3.4,1.9
	c-1.5,0-4.4-0.2-6-1.7l-1.7,3.9c2.5,1.7,4.5,1.7,7.6,1.7c4.6,0,8.2-1.9,8.2-6c0-3.1-1.9-5-5.8-5.4l-3.1-0.2c-1.7-0.1-2-0.9-2-1.6
	c0-0.9,0.8-1.8,2.8-1.8c1.7,0,3.9,0.3,5,1.2l1.8-3.4c-2-1.2-4.3-1.7-6.7-1.6C163.2,43.9,159.7,45.9,159.7,49.7"/>
<path class="st0" d="M177.9,37.8v6.8h-2.1v3.5h2.1v9c0,2.6,1.7,5.2,5.6,5.2h2.6v-3.8h-1.8c-0.8,0.1-1.6-0.4-1.7-1.2
	c0-0.1,0-0.3,0-0.4v-8.8h3.4v-3.5h-3.4v-6.8H177.9z"/>
<path class="st0" d="M158.9,43.9c-1.8,0-3.6,0.7-4.9,2v-1.8h-4.8v18.3h4.9v-11c-0.1-1.7,1.1-3.3,2.9-3.4c0.1,0,0.2,0,0.2,0
	c0.5,0,1,0.1,1.6,0.1l1.1-4.2h-0.5L158.9,43.9"/>
<path class="st0" d="M135.8,34.9c-4,0-5.7,2.6-5.7,5.2v4.5h-1.9c0,1.3,0,2.5,0,3.3v0.2h1.9v14.3h4.9V48.1h3.6v-3.5h-3.6v-4.2
	c-0.1-0.8,0.5-1.6,1.3-1.7c0.1,0,0.3,0,0.4,0h1.9v-3.9H135.8z"/>
<path class="st0" d="M44.5,62.4V50.7c0-3.2,1.7-4.9,5-5s4.8,1.7,4.8,5v11.6h2.3v-12c0.1-1.8-0.6-3.6-1.9-4.9
	c-1.4-1.2-3.2-1.9-5.1-1.8c-1.9-0.1-3.8,0.7-5.2,2v-11h-2.4v27.7H44.5z"/>
<path class="st0" d="M88.9,62.4h2.3V49.7c0.1-1.7-0.6-3.3-1.8-4.4c-1.6-1.1-3.5-1.7-5.5-1.5c-3,0-5,0.6-6.6,2.8l-0.1,0.2l1.7,1.4
	l0.1-0.2c1.2-1.5,2.3-2.1,4.9-2.1c3.7,0,4.9,1.4,4.9,4.1v1.9h-5.7c-1.7-0.1-3.4,0.4-4.8,1.4c-1.2,0.9-1.8,2.4-1.8,3.9
	c0,1.4,0.5,2.8,1.4,3.8c1.2,1.2,2.8,1.7,5.5,1.7c1.9,0.2,3.9-0.4,5.4-1.7L88.9,62.4z M87.9,59.1c-1.2,1-2.8,1.5-4.4,1.3
	c-3.3,0-4.6-1.2-4.6-3.4s1.4-3.3,4.5-3.3h5.5v2C89,56.9,88.6,58.1,87.9,59.1"/>
<path class="st0" d="M113.9,62.4V50.7c0-3.2,1.7-4.9,4.9-5s4.8,1.7,4.8,5v11.7h2.4v-12c0.1-1.8-0.6-3.6-1.9-4.9
	c-3-2.4-7.3-2.4-10.3,0.2v-11h-2.3v27.7H113.9z"/>
<path class="st0" d="M108.5,60.4h-0.9c-1.8,0-2.6-0.9-2.6-2.7V46.2h4.1v-1.8H105v-8h-2.3v8h-2.6v1.8h2.5v11.4
	c-0.1,1.2,0.4,2.4,1.2,3.4c0.9,0.9,2.1,1.4,3.4,1.3h1.3V60.4z"/>
<path class="st0" d="M72.2,58.4L72.2,58.4L72.2,58.4L72.2,58.4L72.2,58.4c-1.2,1.3-2.9,2-4.7,1.9c-3.8,0-5.7-2.2-5.7-6.6h12.6v-1
	c0.1-2.4-0.6-4.7-2-6.5c-1.4-1.6-3.4-2.5-5.5-2.4c-2.1-0.1-4.2,0.8-5.5,2.5c-1.4,2-2.1,4.4-2,6.9c0,3,0.7,5.3,2,7
	c1.5,1.7,3.7,2.5,5.9,2.4l0,0c2.3,0.1,4.6-0.7,6.2-2.3L72.2,58.4z M62.3,48.7c1.2-2.5,4.1-3.6,6.6-2.5c1.1,0.5,2,1.4,2.5,2.5
	c0.4,1,0.6,2,0.6,3.1H61.7C61.7,50.7,61.9,49.7,62.3,48.7"/>
<path class="st1" d="M35.6,58.5c1.9-6.8,1.7-11-1.5-16.6c-4.2-7.2-15.9-9.5-21.6-12.5c-2-1.1-2.7-1.9-3.2-1.7c1.6,2,3.5,3.8,5.6,5.3
	C17.5,34.8,29.9,43.8,35.6,58.5"/>
<path class="st1" d="M36,71.3c1.2-3.6-0.2-7.5-0.9-9.5c-4.4-11.1-11.3-21-20.3-28.8l0.1,0.1c-2.1-1.6-3.9-3.4-5.6-5.4c0,0,0,0,0,0
	c-0.4,0.9,1.3,2,2.4,6.2c2.1,8-0.5,16.1,15.8,23.5c6.8,3.1,7.8,7.8,6.7,11.4c0.4,0.4,0.8,0.8,1.2,1.3C35.7,70.6,35.9,70.9,36,71.3"
	/>
<rect x="95.3" y="34.7" class="st0" width="2.3" height="27.7"/>
<path class="st0" d="M188.7,36.9c0.3,0,0.6,0.1,0.9,0.2c0.3,0.2,0.5,0.4,0.7,0.7c0.3,0.6,0.3,1.3,0,1.8c-0.2,0.3-0.4,0.5-0.7,0.7
	c-0.6,0.3-1.3,0.3-1.8,0c-0.3-0.2-0.5-0.4-0.7-0.7c-0.3-0.6-0.3-1.3,0-1.8c0.2-0.3,0.4-0.5,0.7-0.7C188.1,37,188.4,36.9,188.7,36.9
	 M188.7,37.2c-0.3,0-0.5,0.1-0.8,0.2c-0.2,0.1-0.4,0.3-0.6,0.6c-0.1,0.2-0.2,0.5-0.2,0.8c0,0.3,0.1,0.5,0.2,0.8
	c0.1,0.2,0.3,0.4,0.6,0.6c0.5,0.3,1,0.3,1.5,0c0.2-0.1,0.4-0.3,0.6-0.6c0.3-0.5,0.3-1.1,0-1.5c-0.1-0.2-0.3-0.4-0.6-0.6
	C189.2,37.3,188.9,37.2,188.7,37.2 M187.9,39.8v-2h0.7c0.2,0,0.3,0,0.5,0c0.1,0,0.2,0.1,0.2,0.2c0.1,0.1,0.1,0.2,0.1,0.3
	c0,0.1-0.1,0.3-0.2,0.4c-0.1,0.1-0.3,0.2-0.4,0.2c0.1,0,0.1,0.1,0.2,0.1c0.1,0.1,0.2,0.3,0.3,0.4l0.2,0.4h-0.4l-0.2-0.3
	c-0.1-0.2-0.2-0.3-0.3-0.5c-0.1-0.1-0.2-0.1-0.2-0.1h-0.2v0.8L187.9,39.8z M188.2,38.7h0.4c0.1,0,0.3,0,0.4-0.1
	c0.1-0.1,0.1-0.1,0.1-0.2c0-0.1,0-0.1,0-0.2c0,0-0.1-0.1-0.1-0.1c-0.1,0-0.2,0-0.3,0h-0.4L188.2,38.7z"/>
</svg>
